<svg width="101" height="65" viewBox="0 0 101 65" fill="none" xmlns="http://www.w3.org/2000/svg">
<path fill-rule="evenodd" clip-rule="evenodd" d="M0 26.8469C0 26.2551 0.210978 25.7452 0.632936 25.3172C1.05582 24.8899 1.55708 24.6757 2.14068 24.6757H9.82901C9.95843 18.9509 10.299 14.032 10.8506 9.91909C11.4023 5.80614 12.4241 2.9603 13.9162 1.38156C14.8241 0.461328 15.8621 0.000806988 17.0304 0C18.5869 0 19.7873 0.690781 20.6315 2.07234C21.215 2.99554 21.6203 4.24637 21.8476 5.82484C22.0749 7.40331 22.1396 9.19643 22.0418 11.2042C21.9452 13.212 21.7182 15.3668 21.3607 17.6686C21.0032 19.9704 20.5656 22.3065 20.0479 24.6769H25.3023C25.8858 24.6769 26.3886 24.8907 26.8109 25.3184C27.2331 25.7461 27.4438 26.256 27.443 26.8481C27.443 27.3759 27.2323 27.8529 26.8109 28.2793C26.3894 28.7056 25.8866 28.9196 25.3023 28.9212H19.0744C18.3583 31.6844 17.612 34.2999 16.8355 36.768C16.0589 39.236 15.2804 41.3581 14.4998 43.1343C14.5019 43.161 14.4987 43.1878 14.4904 43.2133C14.4822 43.2387 14.469 43.2622 14.4517 43.2824C14.4343 43.3025 14.421 43.3259 14.4126 43.3512C14.4042 43.3766 14.4009 43.4034 14.4028 43.4301C14.5974 45.6678 14.8733 47.8229 15.2302 49.8952C15.5872 51.9676 16.0413 53.8102 16.5924 55.4231C17.1427 57.0371 17.7753 58.3202 18.49 59.2725C19.2048 60.2247 19.9832 60.7018 20.8252 60.7036C21.8627 60.7036 23.096 60.095 24.525 58.8778C25.954 57.6606 27.4299 56.0649 28.9527 54.0908C30.4764 52.1172 31.9363 49.8965 33.3324 47.4287C34.7285 44.9609 35.8799 42.4767 36.7867 39.9762C37.1105 39.0559 37.7591 38.5954 38.7324 38.5946C39.0461 38.5946 39.2688 38.6264 39.4017 38.6875C39.4671 38.5836 39.5335 38.4806 39.6007 38.3783C40.769 36.6015 42.1639 35.1703 43.7854 34.0847C45.4069 32.999 47.191 32.4562 49.1377 32.4562C51.0205 32.4551 52.3994 33.1619 53.2747 34.5765C54.1499 35.9912 54.5875 37.5539 54.5875 39.2647C54.5875 41.1733 54.2469 43.0815 53.5659 44.9895C52.8881 46.8917 51.9192 48.6737 50.6948 50.27C49.4806 51.8652 48.0179 53.2488 46.3645 54.3663C44.7117 55.4851 42.9437 56.2417 41.0607 56.6364C41.7744 58.2813 42.7638 59.3341 44.0289 59.7949C44.5062 59.9639 44.9939 60.1012 45.4889 60.2061C45.7646 60.2718 47.0455 60.5337 48.7649 60.453C51.4248 60.3215 53.5173 59.3837 53.9549 59.186C57.5556 57.5575 59.4859 54.8432 60.4752 53.412L60.5316 53.33C61.1214 52.4726 61.7167 51.607 62.1978 50.6752C62.1915 50.6393 62.1854 50.6032 62.1795 50.567V50.5505C62.0749 49.9696 62.0205 49.3805 62.0171 48.79C62.0032 48.6645 61.9978 48.5382 62.0008 48.412C62.0008 48.05 62.0171 47.7046 62.0494 47.3588C62.4536 42.0949 65.9421 38.5417 70.8078 38.5417C75.0101 38.5417 77.751 41.4779 80.603 44.533C80.8883 44.8386 81.1748 45.1455 81.4639 45.4507C81.753 45.1456 82.0394 44.8388 82.3246 44.5332L82.3249 44.5329C85.1768 41.4779 87.9178 38.5417 92.12 38.5417C97.31 38.5417 100.927 42.5718 100.927 48.412C100.927 54.2352 97.31 58.2822 92.12 58.2822C87.939 58.2822 85.2046 55.3621 82.3682 52.3332L82.3677 52.3326C82.0682 52.0128 81.7675 51.6918 81.4639 51.3728C81.1603 51.6917 80.8597 52.0128 80.5602 52.3326L80.5597 52.3332C77.7233 55.3621 74.9888 58.2822 70.8078 58.2822C68.3911 58.2822 66.3152 57.3937 64.7908 55.8476C64.5118 55.575 64.2507 55.28 64.009 54.964C63.6053 55.5125 63.1994 56.0302 62.8247 56.5081L62.7615 56.5887C61.4965 58.2007 59.1608 60.3888 55.8521 62.412C53.322 63.9584 50.6945 64.7316 47.9697 64.7316C46.7753 64.7288 45.5846 64.5963 44.4179 64.3366C43.2075 64.0694 42.0539 63.5846 41.0118 62.9054C39.9414 62.2149 39.0006 61.2609 38.1896 60.0435C37.3786 58.826 36.7785 57.2631 36.3895 55.3549C36.3914 55.3281 36.3881 55.3012 36.3797 55.2758C36.3713 55.2504 36.358 55.2269 36.3405 55.2068C36.3232 55.1866 36.3099 55.1631 36.3016 55.1377C36.2932 55.1123 36.29 55.0854 36.292 55.0587C36.0978 53.8773 36.0005 52.5651 36 51.1219C34.7965 53.14 33.5179 55.0343 32.164 56.8047C30.3788 59.1414 28.4974 61.0827 26.5197 62.6283C24.542 64.174 22.6442 64.9472 20.8264 64.948C19.2044 64.948 17.8097 64.405 16.6425 63.3191C15.4753 62.2331 14.4859 60.8679 13.6744 59.2232C12.862 57.5791 12.2295 55.7365 11.7767 53.6954C11.324 51.6542 10.9668 49.6961 10.705 47.8209C10.4451 45.9463 10.2666 44.2357 10.1695 42.6893C10.0725 41.1428 10.0239 40.0075 10.0239 39.2834V38.9876C9.95817 37.2768 9.90937 35.5821 9.87754 33.9036C9.84572 32.225 9.82954 30.5637 9.82901 28.9196H2.14068C1.55708 28.9196 1.05582 28.7066 0.632936 28.2777C0.21005 27.8487 0 27.3746 0 26.8469ZM65.8898 51.9371C66.8025 53.8585 68.5288 54.9921 70.8078 54.9921C74.1507 54.9921 76.3313 52.3075 78.652 49.4505C78.9324 49.1053 79.2147 48.7577 79.5014 48.412C79.2147 48.0662 78.9324 47.7186 78.652 47.3735C76.3313 44.5164 74.1507 41.8318 70.8078 41.8318C68.3623 41.8318 66.5296 43.1508 65.6827 45.3625C66.0404 45.8608 66.3489 46.433 66.5413 47.0457C67.0498 48.6747 66.6545 50.3511 65.8898 51.9371ZM14.0149 24.6757H15.864C16.3819 22.1759 16.8195 19.7576 17.1768 17.4208C17.534 15.0841 17.7611 12.9948 17.8579 11.153C17.9544 9.31197 17.9381 7.76524 17.8089 6.51279C17.6798 5.26035 17.4203 4.5042 17.0304 4.24435C16.6413 4.5077 16.2843 5.13285 15.9595 6.11979C15.6348 6.90956 15.3268 8.09382 15.0353 9.67255C14.7438 11.2513 14.5005 13.4557 14.3053 16.2858C14.2401 17.6039 14.1914 18.9693 14.1593 20.3821C14.1272 21.7949 14.0791 23.226 14.0149 24.6757ZM14.1124 31.6831C14.2413 31.2237 14.3548 30.7632 14.4529 30.3016C14.551 29.84 14.6645 29.3795 14.7934 28.92H14.0149V30.3016C14.0143 30.7639 14.0464 31.2256 14.1112 31.6831H14.1124ZM92.12 54.9921C88.7766 54.9921 86.5955 52.3067 84.2746 49.4492L84.2737 49.4481C83.9941 49.1037 83.7124 48.7569 83.4264 48.412C83.7124 48.067 83.9941 47.7202 84.2737 47.3759L84.2746 47.3748C86.5955 44.5172 88.7766 41.8318 92.12 41.8318C95.5413 41.8318 97.7639 44.4142 97.7639 48.412C97.7639 52.3928 95.5421 54.9921 92.12 54.9921ZM40.1851 51.1113C40.1848 51.7693 40.2172 52.2298 40.2822 52.4929V52.4909C41.9042 52.1619 43.3478 51.4878 44.6129 50.4685C45.8475 49.4823 46.9156 48.2988 47.7756 46.9646C48.6187 45.6481 49.2674 44.2991 49.7217 42.9176C50.176 41.536 50.4032 40.3187 50.4032 39.2655C50.4032 38.3442 50.241 37.6205 49.9166 37.0943C49.657 36.831 49.3975 36.6993 49.1381 36.6993C47.8404 36.6993 46.6402 37.127 45.5374 37.9824C44.4344 38.837 43.4937 39.9557 42.7152 41.3383C41.9368 42.7209 41.3205 44.2677 40.8662 45.9785C40.4172 47.6515 40.1882 49.3774 40.1851 51.1113Z" fill="#1E1E1E"/>
</svg>
