<svg width="84" height="84" viewBox="0 0 84 84" fill="none" xmlns="http://www.w3.org/2000/svg">
<path d="M36.1666 49.5002L27.2083 40.5418C26.4444 39.7779 25.4721 39.396 24.2916 39.396C23.111 39.396 22.1388 39.7779 21.3749 40.5418C20.611 41.3057 20.2291 42.2779 20.2291 43.4585C20.2291 44.6391 20.611 45.6113 21.3749 46.3752L33.2499 58.2502C34.0833 59.0835 35.0555 59.5002 36.1666 59.5002C37.2777 59.5002 38.2499 59.0835 39.0833 58.2502L62.6249 34.7085C63.3888 33.9446 63.7708 32.9724 63.7708 31.7918C63.7708 30.6113 63.3888 29.6391 62.6249 28.8752C61.861 28.1113 60.8888 27.7293 59.7083 27.7293C58.5277 27.7293 57.5555 28.1113 56.7916 28.8752L36.1666 49.5002ZM41.9999 83.6668C36.236 83.6668 30.8194 82.5724 25.7499 80.3835C20.6805 78.1946 16.2708 75.2266 12.5208 71.4793C8.77075 67.7293 5.8027 63.3196 3.61659 58.2502C1.43047 53.1807 0.33603 47.7641 0.333252 42.0002C0.333252 36.2363 1.4277 30.8196 3.61659 25.7502C5.80548 20.6807 8.77353 16.271 12.5208 12.521C16.2708 8.771 20.6805 5.80294 25.7499 3.61683C30.8194 1.43072 36.236 0.336274 41.9999 0.333496C47.7638 0.333496 53.1805 1.42794 58.2499 3.61683C63.3194 5.80572 67.7291 8.77378 71.4791 12.521C75.2291 16.271 78.1985 20.6807 80.3874 25.7502C82.5763 30.8196 83.6694 36.2363 83.6666 42.0002C83.6666 47.7641 82.5721 53.1807 80.3833 58.2502C78.1944 63.3196 75.2263 67.7293 71.4791 71.4793C67.7291 75.2293 63.3194 78.1988 58.2499 80.3877C53.1805 82.5766 47.7638 83.6696 41.9999 83.6668ZM41.9999 75.3335C51.3055 75.3335 59.1874 72.1043 65.6458 65.646C72.1041 59.1877 75.3333 51.3057 75.3333 42.0002C75.3333 32.6946 72.1041 24.8127 65.6458 18.3543C59.1874 11.896 51.3055 8.66683 41.9999 8.66683C32.6944 8.66683 24.8124 11.896 18.3541 18.3543C11.8958 24.8127 8.66659 32.6946 8.66659 42.0002C8.66659 51.3057 11.8958 59.1877 18.3541 65.646C24.8124 72.1043 32.6944 75.3335 41.9999 75.3335Z" fill="#7F9B2D"/>
</svg>
